# Alias OBJ Model File
# Exported from SketchUp, (c) 2000-2012 Trimble Navigation Limited
# File units = feet

mtllib Circle thingy.mtl

g Mesh1 Model

usemtl FrontColor
v -182.398 0 -90.3971
vt 2188.78 1084.77
vn 0 -1 -0
v -170.037 3.78956e-14 -11.4821
vt 2040.44 137.786
v -171.685 1.89478e-14 2.94261
vt 2060.22 -35.3114
f 1/1/1 2/2/1 3/3/1

v -166.596 3.78956e-14 -41.5929
vt 1999.16 499.115
f 2/2/1 1/1/1 4/4/1

v -152.787 0 -134.525
vt 1833.44 1614.3
f 4/4/1 1/1/1 5/5/1

vt -318.855 0
vn -0.750536 0 -0.66083
vt 318.855 0
vn -0.895997 0 -0.444059
v -182.398 275.53 -90.3971
vt 318.855 3306.36
v -152.787 275.53 -134.525
vt -318.855 3306.36
f 5/6/2 1/7/3 6/8/3 7/9/2 

v -199.58 0 -40.1088
vn -0.980398 0 -0.197027
v -199.58 275.53 -40.1088
f 1/6/3 8/7/4 9/8/4 6/9/3 

v -192.895 0 65.0546
vt 2314.75 -780.655
vt 2394.96 481.306
f 10/10/1 8/11/1 1/1/1

v -203.16 0 12.9129
vt 2437.92 -154.954
f 8/11/1 10/10/1 11/12/1

vn -0.997986 0 0.0634321
vn -0.947563 0 0.319569
v -192.895 275.53 65.0546
v -203.16 275.53 12.9129
f 11/6/5 10/7/6 12/8/6 13/9/5 

v -169.485 0 112.763
vn -0.832565 0 0.553927
v -169.485 275.53 112.763
f 10/6/6 14/7/7 15/8/7 12/9/6 

vt 2033.82 -1353.15
f 10/10/1 1/1/1 14/13/1

f 14/13/1 1/1/1 3/3/1

v -165.073 1.89478e-14 47.2776
vt 1980.88 -567.332
f 14/13/1 3/3/1 16/14/1

v -171.685 275.53 2.94261
vt 268.952 3306.36
vn 0.999853 -1.91108e-20 -0.0171371
v -165.073 275.53 47.2776
vt -268.952 3306.36
vn 0.961349 0 -0.275334
vt -268.952 2.27374e-13
vt 268.952 2.27374e-13
f 17/15/8 18/16/9 16/17/9 3/18/8 

vt -2060.22 -35.3114
vn -3.1047e-31 1 -2.32167e-32
vt -2033.82 -1353.15
vt -1980.88 -567.332
f 17/19/10 15/20/10 18/21/10

vt -2188.78 1084.77
f 6/22/10 15/20/10 17/19/10

vt -2314.75 -780.655
f 6/22/10 12/23/10 15/20/10

vt -2394.96 481.306
f 9/24/10 12/23/10 6/22/10

v -201.37 275.53 -13.598
vt -2416.44 163.176
f 19/25/10 12/23/10 9/24/10

vt -2437.92 -154.954
f 12/23/10 19/25/10 13/26/10

vt 0 3306.36
vn -0.997728 0 -0.0673739
f 8/6/4 11/7/5 13/8/5 19/27/11 9/9/4 

v -170.037 275.53 -11.4821
vt -2040.44 137.786
f 20/28/10 6/22/10 17/19/10

v -166.596 275.53 -41.5929
vt -1999.16 499.115
f 21/29/10 6/22/10 20/28/10

vt -1833.44 1614.3
f 6/22/10 21/29/10 7/30/10

v -150.155 275.53 -83.294
vt -1801.86 999.528
f 7/30/10 21/29/10 22/31/10

vn 0.874467 0 0.485085
vn 0.970219 -1.91108e-20 0.242228
vt -268.952 4.54747e-13
v -150.155 3.78956e-14 -83.294
vt 268.952 4.54747e-13
f 22/15/12 21/16/13 4/32/13 23/33/12 

vt -94.7288 3306.36
vn 0.993536 -3.78946e-20 0.113517
vt -268.952 2.27296e-13
vt -94.7288 4.5467e-13
vt 268.952 4.5467e-13
f 21/15/13 20/34/14 17/16/8 3/35/8 2/36/14 4/37/13 

vt 1801.86 999.528
f 4/4/1 5/5/1 23/38/1

v -112.763 0 -169.485
vt 1353.15 2033.82
f 23/38/1 5/5/1 24/39/1

vn -0.553927 0 -0.832565
v -112.763 275.53 -169.485
f 24/6/15 5/7/2 7/8/2 25/9/15 

vt -1353.15 2033.82
f 7/30/10 22/31/10 25/40/10

v -123.48 275.53 -119.319
vt -1481.76 1431.82
f 25/40/10 22/31/10 26/41/10

vn 0.719121 0 0.694885
v -123.48 3.78956e-14 -119.319
f 26/15/16 22/16/12 23/32/12 27/33/16 

vt 1481.76 1431.82
f 23/38/1 24/39/1 27/42/1

v -88.3908 3.78956e-14 -147.212
vt 1060.69 1766.54
f 27/42/1 24/39/1 28/43/1

v -65.0546 0 -192.895
vt 780.655 2314.75
f 28/43/1 24/39/1 29/44/1

vn -0.319569 0 -0.947563
v -65.0546 275.53 -192.895
f 29/6/17 24/7/15 25/8/15 30/9/17 

v -88.3908 275.53 -147.212
vt -1060.69 1766.54
vt -780.655 2314.75
f 25/40/10 31/45/10 30/46/10

f 25/40/10 26/41/10 31/45/10

vn 0.514768 0 0.85733
f 31/15/18 26/16/16 27/32/16 28/33/18 

v -47.2776 275.53 -165.073
vn 0.275334 0 0.961349
v -47.2776 3.78956e-14 -165.073
f 32/15/19 31/16/18 28/32/18 33/33/19 

vt -567.332 1980.88
f 30/46/10 31/45/10 32/47/10

v -12.9129 275.53 -203.16
vt -154.954 2437.92
f 30/46/10 32/47/10 34/48/10

v -2.94261 275.53 -171.685
vt -35.3114 2060.22
f 34/48/10 32/47/10 35/49/10

vn 0.0171371 3.82215e-20 0.999853
v -2.94261 3.78956e-14 -171.685
f 35/15/20 32/16/19 33/32/19 36/33/20 

vt 567.332 1980.88
v -12.9129 0 -203.16
vt 154.954 2437.92
vt 35.3114 2060.22
f 33/50/1 37/51/1 36/52/1

f 33/50/1 29/44/1 37/51/1

f 28/43/1 29/44/1 33/50/1

vn -0.0634321 0 -0.997986
f 37/6/21 29/7/17 30/8/17 34/9/21 

v 40.1088 0 -199.58
vn 0.197027 0 -0.980398
v 13.598 275.53 -201.37
vt 9.09495e-13 3306.36
vn 0.0673739 0 -0.997728
v 40.1088 275.53 -199.58
f 38/6/22 37/7/21 34/8/21 39/53/23 40/9/22 

vt -481.306 2394.96
f 36/52/1 37/51/1 38/54/1

v 11.4821 3.78956e-14 -170.037
vt -137.786 2040.44
f 36/52/1 38/54/1 41/55/1

v 41.5929 0 -166.596
vt -499.115 1999.16
f 41/55/1 38/54/1 42/56/1

v 90.3971 0 -182.398
vt -1084.77 2188.78
f 42/56/1 38/54/1 43/57/1

vn 0.444059 0 -0.895997
v 90.3971 275.53 -182.398
f 43/6/24 38/7/22 40/8/22 44/9/24 

vt 481.306 2394.96
v 41.5929 275.53 -166.596
vt 499.115 1999.16
vt 1084.77 2188.78
f 40/58/10 45/59/10 44/60/10

vt 163.176 2416.44
f 39/61/10 45/59/10 40/58/10

v 11.4821 275.53 -170.037
vt 137.786 2040.44
f 39/61/10 46/62/10 45/59/10

f 39/61/10 35/49/10 46/62/10

f 34/48/10 35/49/10 39/61/10

vt -268.952 4.54902e-13
vt -94.7288 4.54902e-13
vn -0.113517 7.57891e-20 0.993536
vt 268.952 1.54829e-16
vn -0.242228 3.82215e-20 0.970219
f 36/63/20 41/64/25 42/65/26 45/15/26 46/34/25 35/16/20 

v 83.294 275.53 -150.155
vn -0.485085 0 0.874467
vt -268.952 0
v 83.294 0 -150.155
vt 268.952 0
f 47/15/27 45/16/26 42/66/26 48/67/27 

vt 999.528 1801.86
f 44/60/10 45/59/10 47/68/10

v 119.319 275.53 -123.48
vt 1431.82 1481.76
f 44/60/10 47/68/10 49/69/10

vn -0.694885 0 0.719121
v 119.319 0 -123.48
f 49/15/28 47/16/27 48/66/27 50/67/28 

vt -999.528 1801.86
vt -1431.82 1481.76
f 48/70/1 43/57/1 50/71/1

f 42/56/1 43/57/1 48/70/1

v 134.525 0 -152.787
vt -1614.3 1833.44
f 50/71/1 43/57/1 51/72/1

vn 0.66083 0 -0.750536
v 134.525 275.53 -152.787
f 51/6/29 43/7/24 44/8/24 52/9/29 

vt 1614.3 1833.44
f 44/60/10 49/69/10 52/73/10

v 147.212 275.53 -88.3908
vt 1766.54 1060.69
f 52/73/10 49/69/10 53/74/10

vn -0.85733 0 0.514768
v 147.212 0 -88.3908
f 53/15/30 49/16/28 50/66/28 54/67/30 

vt -1766.54 1060.69
f 50/71/1 51/72/1 54/75/1

v 169.485 0 -112.763
vt -2033.82 1353.15
f 54/75/1 51/72/1 55/76/1

vn 0.832565 0 -0.553927
v 169.485 275.53 -112.763
f 55/6/31 51/7/29 52/8/29 56/9/31 

vt 2033.82 1353.15
f 52/73/10 53/74/10 56/77/10

v 165.073 275.53 -47.2776
vt 1980.88 567.332
f 56/77/10 53/74/10 57/78/10

vn -0.961349 0 0.275334
v 165.073 0 -47.2776
f 57/15/32 53/16/30 54/66/30 58/67/32 

vt -1980.88 567.332
f 54/75/1 55/76/1 58/79/1

v 171.685 0 -2.94261
vt -2060.22 35.3114
f 58/79/1 55/76/1 59/80/1

v 192.895 0 -65.0546
vt -2314.75 780.655
f 59/80/1 55/76/1 60/81/1

vn 0.947563 0 -0.319569
v 192.895 275.53 -65.0546
f 60/6/33 55/7/31 56/8/31 61/9/33 

v 171.685 275.53 -2.94261
vt 2060.22 35.3114
vt 2314.75 780.655
f 56/77/10 62/82/10 61/83/10

f 56/77/10 57/78/10 62/82/10

vn -0.999853 -4.82867e-19 0.0171371
f 62/15/34 57/16/32 58/66/32 59/67/34 

v 166.596 275.53 41.5929
vn -0.970219 -4.82867e-19 -0.242228
v 170.037 275.53 11.4821
vn -0.993536 -9.57472e-19 -0.113517
vt -268.952 -1.95601e-15
v 170.037 0 11.4821
vt -94.7288 -1.95601e-15
v 166.596 3.78956e-14 41.5929
vt 268.952 4.52791e-13
f 63/15/35 64/34/36 62/16/34 59/84/34 65/85/36 66/86/35 

vt 1999.16 -499.115
v 182.398 275.53 90.3971
vt 2188.78 -1084.77
vt 2040.44 -137.786
f 63/87/10 67/88/10 64/89/10

v 152.787 275.53 134.525
vt 1833.44 -1614.3
f 63/87/10 68/90/10 67/88/10

v 150.155 275.53 83.294
vt 1801.86 -999.528
f 69/91/10 68/90/10 63/87/10

v 123.48 275.53 119.319
vt 1481.76 -1431.82
f 70/92/10 68/90/10 69/91/10

v 112.763 275.53 169.485
vt 1353.15 -2033.82
f 70/92/10 71/93/10 68/90/10

v 88.3908 275.53 147.212
vt 1060.69 -1766.54
f 72/94/10 71/93/10 70/92/10

v 65.0546 275.53 192.895
vt 780.655 -2314.75
f 72/94/10 73/95/10 71/93/10

v 47.2776 275.53 165.073
vt 567.332 -1980.88
f 74/96/10 73/95/10 72/94/10

v 12.9129 275.53 203.16
vt 154.954 -2437.92
f 74/96/10 75/97/10 73/95/10

v 2.94261 275.53 171.685
vt 35.3114 -2060.22
f 76/98/10 75/97/10 74/96/10

v -11.4821 275.53 170.037
vt -137.786 -2040.44
f 77/99/10 75/97/10 76/98/10

v -13.598 275.53 201.37
vt -163.176 -2416.44
f 77/99/10 78/100/10 75/97/10

v -40.1088 275.53 199.58
vt -481.306 -2394.96
f 77/99/10 79/101/10 78/100/10

v -41.5929 275.53 166.596
vt -499.115 -1999.16
f 80/102/10 79/101/10 77/99/10

v -83.294 275.53 150.155
vt -999.528 -1801.86
f 81/103/10 79/101/10 80/102/10

v -90.3971 275.53 182.398
vt -1084.77 -2188.78
f 81/103/10 82/104/10 79/101/10

v -119.319 275.53 123.48
vt -1431.82 -1481.76
f 83/105/10 82/104/10 81/103/10

v -134.525 275.53 152.787
vt -1614.3 -1833.44
f 83/105/10 84/106/10 82/104/10

v -147.212 275.53 88.3908
vt -1766.54 -1060.69
f 85/107/10 84/106/10 83/105/10

f 18/21/10 84/106/10 85/107/10

f 18/21/10 15/20/10 84/106/10

v -134.525 0 152.787
vn -0.66083 0 0.750536
f 14/6/7 86/7/37 84/8/37 15/9/7 

vt 1614.3 -1833.44
f 14/13/1 16/14/1 86/108/1

v -147.212 1.89478e-14 88.3908
vt 1766.54 -1060.69
f 86/108/1 16/14/1 87/109/1

vn 0.85733 0 -0.514768
f 18/15/9 85/16/38 87/17/38 16/18/9 

vn 0.694885 0 -0.719121
v -119.319 1.89478e-14 123.48
f 85/15/38 83/16/39 88/17/39 87/18/38 

vn 0.485085 0 -0.874467
v -83.294 1.89478e-14 150.155
f 83/15/39 81/16/40 89/17/40 88/18/39 

vn 0.242228 -1.84101e-19 -0.970219
v -41.5929 1.89478e-14 166.596
f 81/15/40 80/16/41 90/17/41 89/18/40 

v 2.94261 3.78956e-14 171.685
vt -268.952 4.54002e-13
vn -0.0171371 -1.84101e-19 -0.999853
v -11.4821 3.78956e-14 170.037
vt -94.7288 4.54002e-13
vn 0.113517 -3.65052e-19 -0.993536
vt 268.952 2.26628e-13
f 91/110/42 92/111/43 90/112/41 80/15/41 77/34/43 76/16/42 

v 12.9129 0 203.16
vt -154.954 -2437.92
vt 137.786 -2040.44
vt -35.3114 -2060.22
f 93/113/1 92/114/1 91/115/1

v -40.1088 0 199.58
vt 481.306 -2394.96
f 94/116/1 92/114/1 93/113/1

vt 499.115 -1999.16
f 94/116/1 90/117/1 92/114/1

vt 999.528 -1801.86
f 94/116/1 89/118/1 90/117/1

v -90.3971 0 182.398
vt 1084.77 -2188.78
f 95/119/1 89/118/1 94/116/1

vt 1431.82 -1481.76
f 95/119/1 88/120/1 89/118/1

f 86/108/1 88/120/1 95/119/1

f 86/108/1 87/109/1 88/120/1

vn -0.444059 0 0.895997
f 86/6/37 95/7/44 82/8/44 84/9/37 

vn -0.197027 0 0.980398
f 95/6/44 94/7/45 79/8/45 82/9/44 

vn 0.0634321 0 0.997986
vt -1.7053e-13 3306.36
vn -0.0673739 0 0.997728
f 94/6/45 93/7/46 75/8/46 78/121/47 79/9/45 

v 65.0546 0 192.895
vn 0.319569 0 0.947563
f 93/6/46 96/7/48 73/8/48 75/9/46 

v 47.2776 3.78956e-14 165.073
vt -567.332 -1980.88
vt -780.655 -2314.75
f 93/113/1 97/122/1 96/123/1

f 93/113/1 91/115/1 97/122/1

vn -0.275334 0 -0.961349
f 76/15/42 74/16/49 97/32/49 91/33/42 

vn -0.514768 0 -0.85733
v 88.3908 3.78956e-14 147.212
f 74/15/49 72/16/50 98/32/50 97/33/49 

vn -0.719121 0 -0.694885
v 123.48 3.78956e-14 119.319
f 72/15/50 70/16/51 99/32/51 98/33/50 

vn -0.874467 0 -0.485085
v 150.155 3.78956e-14 83.294
f 70/15/51 69/16/52 100/32/52 99/33/51 

f 69/15/52 63/16/35 66/32/35 100/33/52 

v 152.787 0 134.525
vt -1833.44 -1614.3
vt -1801.86 -999.528
vt -1999.16 -499.115
f 101/124/1 100/125/1 66/126/1

vt -1481.76 -1431.82
f 101/124/1 99/127/1 100/125/1

v 112.763 0 169.485
vt -1353.15 -2033.82
f 102/128/1 99/127/1 101/124/1

vt -1060.69 -1766.54
f 102/128/1 98/129/1 99/127/1

f 96/123/1 98/129/1 102/128/1

f 96/123/1 97/122/1 98/129/1

vn 0.553927 0 0.832565
f 96/6/48 102/7/53 71/8/53 73/9/48 

vn 0.750536 0 0.66083
f 102/6/53 101/7/54 68/8/54 71/9/53 

v 182.398 0 90.3971
vn 0.895997 0 0.444059
f 101/6/54 103/7/55 67/8/55 68/9/54 

vt -2188.78 -1084.77
f 101/124/1 66/126/1 103/130/1

vt -2040.44 -137.786
f 103/130/1 66/126/1 65/131/1

f 103/130/1 65/131/1 59/80/1

f 59/80/1 60/81/1 103/130/1

v 199.58 0 40.1088
vt -2394.96 -481.306
f 103/130/1 60/81/1 104/132/1

v 203.16 0 -12.9129
vt -2437.92 154.954
f 104/132/1 60/81/1 105/133/1

vn 0.997986 0 -0.0634321
v 203.16 275.53 -12.9129
f 105/6/56 60/7/33 61/8/33 106/9/56 

v 201.37 275.53 13.598
vt 2416.44 -163.176
vt 2437.92 154.954
f 61/83/10 107/134/10 106/135/10

v 199.58 275.53 40.1088
vt 2394.96 -481.306
f 61/83/10 108/136/10 107/134/10

f 61/83/10 67/88/10 108/136/10

f 61/83/10 62/82/10 67/88/10

f 64/89/10 67/88/10 62/82/10

vn 0.980398 0 0.197027
f 103/6/55 104/7/57 108/8/57 67/9/55 

vt 3.12639e-13 3306.36
vn 0.997728 0 0.0673739
f 104/6/57 105/7/56 106/8/56 107/137/58 108/9/57 

